<?xml version="1.0" encoding="UTF-8"?>
<svg id="_圖層_1" data-name="圖層_1" xmlns="http://www.w3.org/2000/svg" version="1.1" viewBox="0 0 97 20">
  <!-- Generator: Adobe Illustrator 29.8.4, SVG Export Plug-In . SVG Version: 2.1.1 Build 6)  -->
  <defs>
    <style>
      .st0 {
        fill: #fff;
      }
    </style>
  </defs>
  <path class="st0" d="M23,1.01c-.96.68-2.02,1.19-3.14,1.53-.6-.69-1.4-1.18-2.29-1.41-.89-.22-1.83-.17-2.68.16-.86.33-1.59.91-2.11,1.67-.52.76-.79,1.66-.77,2.58v1c-1.76.05-3.5-.34-5.07-1.13-1.57-.79-2.92-1.96-3.93-3.4,0,0-4,9,5,13-2.06,1.4-4.51,2.1-7,2,9,5,20,0,20-11.5,0-.28-.03-.56-.08-.83,1.02-1.01,1.74-2.28,2.08-3.67Z"/>
  <path class="st0" d="M37.29,8.08c-.09-.31-.23-.58-.39-.82-.16-.25-.36-.46-.59-.63-.23-.17-.49-.3-.78-.39-.3-.09-.62-.14-.97-.14-.62,0-1.18.16-1.67.47-.49.31-.87.78-1.15,1.39-.28.61-.41,1.34-.41,2.22s.14,1.62.41,2.23c.28.61.66,1.07,1.15,1.39.49.31,1.06.47,1.72.47.59,0,1.1-.11,1.53-.34.44-.23.77-.55,1.01-.97.23-.42.35-.91.35-1.48l.48.07h-3.16v-1.65h4.72v1.4c0,1-.21,1.86-.64,2.59-.42.73-1.01,1.29-1.75,1.68-.74.39-1.59.59-2.56.59-1.07,0-2.01-.24-2.82-.72-.81-.48-1.44-1.17-1.89-2.06-.45-.89-.68-1.95-.68-3.18,0-.94.13-1.78.4-2.52.27-.74.64-1.37,1.12-1.88.48-.52,1.05-.91,1.69-1.18.65-.27,1.35-.41,2.11-.41.64,0,1.24.09,1.8.28.56.19,1.05.45,1.48.8.44.34.79.75,1.07,1.23.28.47.46,1,.55,1.57h-2.15ZM45.34,16.17c-.88,0-1.63-.18-2.27-.55-.63-.37-1.12-.89-1.46-1.56-.34-.67-.51-1.47-.51-2.38s.17-1.69.51-2.36c.34-.68.83-1.21,1.44-1.59.62-.38,1.34-.57,2.18-.57.54,0,1.05.09,1.52.26.48.17.91.44,1.27.8.37.36.66.82.88,1.38.21.55.32,1.21.32,1.98v.63h-7.15v-1.39h5.18c0-.39-.09-.74-.26-1.05-.17-.31-.4-.55-.7-.73-.3-.18-.64-.27-1.03-.27-.42,0-.79.1-1.11.31-.32.2-.57.47-.74.8-.17.33-.26.68-.27,1.07v1.21c0,.51.09.94.28,1.31.19.36.45.64.78.83.33.19.72.28,1.17.28.3,0,.57-.04.81-.12.24-.09.45-.21.63-.38.18-.17.31-.37.4-.62l1.92.22c-.12.51-.35.95-.69,1.33-.34.38-.77.67-1.3.88-.53.2-1.13.31-1.81.31ZM55.32,7.27v1.59h-5.02v-1.59h5.02ZM51.54,5.18h2.06v8.19c0,.28.04.49.12.64.09.14.2.24.34.3.14.05.3.08.47.08.13,0,.25,0,.35-.03.11-.02.19-.04.25-.05l.35,1.61c-.11.04-.27.08-.47.13-.2.05-.45.07-.74.08-.52.02-.98-.06-1.39-.23-.41-.17-.74-.44-.98-.81-.24-.36-.36-.82-.35-1.36V5.18ZM59.55,16.18c-.55,0-1.05-.1-1.49-.3-.44-.2-.79-.5-1.05-.89-.25-.39-.38-.87-.38-1.44,0-.49.09-.9.27-1.22.18-.32.43-.58.74-.77.31-.19.67-.34,1.06-.44.4-.1.81-.18,1.23-.22.51-.05.93-.1,1.24-.14.32-.05.55-.11.69-.2.15-.09.22-.24.22-.44v-.03c0-.43-.13-.76-.38-.99s-.62-.35-1.1-.35c-.5,0-.9.11-1.2.33-.29.22-.49.48-.59.78l-1.92-.27c.15-.53.4-.97.75-1.33.35-.36.77-.63,1.28-.81.5-.18,1.06-.27,1.67-.27.42,0,.84.05,1.26.15.42.1.8.26,1.14.49.34.22.62.53.83.91.21.39.32.87.32,1.45v5.84h-1.98v-1.2h-.07c-.12.24-.3.47-.53.68-.22.21-.51.38-.85.51-.34.12-.73.19-1.19.19ZM60.09,14.66c.41,0,.77-.08,1.07-.24.3-.17.54-.39.7-.66.17-.27.25-.57.25-.89v-1.03c-.06.05-.17.1-.33.15-.15.05-.32.09-.51.12-.19.03-.38.06-.56.09-.19.03-.35.05-.48.07-.31.04-.58.11-.82.2-.24.09-.43.23-.57.4-.14.17-.21.38-.21.65,0,.38.14.66.41.86s.63.29,1.06.29ZM68.03,16l-2.47-8.73h2.1l1.53,6.14h.08l1.57-6.14h2.07l1.57,6.1h.09l1.51-6.1h2.1l-2.47,8.73h-2.14l-1.64-5.9h-.12l-1.64,5.9h-2.15ZM82.13,16.18c-.55,0-1.05-.1-1.49-.3-.44-.2-.79-.5-1.05-.89-.25-.39-.38-.87-.38-1.44,0-.49.09-.9.27-1.22.18-.32.43-.58.74-.77s.67-.34,1.06-.44c.4-.1.81-.18,1.23-.22.51-.05.93-.1,1.24-.14.32-.05.55-.11.69-.2.15-.09.22-.24.22-.44v-.03c0-.43-.13-.76-.38-.99s-.62-.35-1.1-.35c-.5,0-.9.11-1.2.33-.29.22-.49.48-.59.78l-1.92-.27c.15-.53.4-.97.75-1.33.35-.36.77-.63,1.28-.81.5-.18,1.06-.27,1.67-.27.42,0,.84.05,1.26.15.42.1.8.26,1.14.49.34.22.62.53.83.91.21.39.32.87.32,1.45v5.84h-1.98v-1.2h-.07c-.12.24-.3.47-.53.68-.22.21-.51.38-.85.51-.34.12-.73.19-1.19.19ZM82.66,14.66c.41,0,.77-.08,1.07-.24.3-.17.54-.39.7-.66.17-.27.25-.57.25-.89v-1.03c-.06.05-.17.1-.33.15-.15.05-.32.09-.51.12-.19.03-.38.06-.56.09-.19.03-.35.05-.48.07-.31.04-.58.11-.82.2-.24.09-.43.23-.57.4-.14.17-.21.38-.21.65,0,.38.14.66.41.86.28.19.63.29,1.06.29ZM89.77,19.27c-.28,0-.54-.02-.78-.07-.23-.04-.42-.09-.56-.15l.48-1.6c.3.09.57.13.8.12.23,0,.44-.08.62-.22.18-.14.34-.38.46-.7l.18-.47-3.16-8.91h2.18l2.01,6.59h.09l2.02-6.59h2.19l-3.49,9.78c-.16.46-.38.86-.65,1.19-.27.33-.6.59-.99.76-.39.18-.85.27-1.39.27Z"/>
</svg>